<?xml version="1.0" standalone="no"?>
<!DOCTYPE svg PUBLIC "-//W3C//DTD SVG 20010904//EN"
 "http://www.w3.org/TR/2001/REC-SVG-20010904/DTD/svg10.dtd">
<svg version="1.0" xmlns="http://www.w3.org/2000/svg"
 width="85.000000pt" height="85.000000pt" viewBox="0 0 85.000000 85.000000"
 preserveAspectRatio="xMidYMid meet">
<metadata>
Created by potrace 1.11, written by Peter Selinger 2001-2013
</metadata>
<g transform="translate(0.000000,85.000000) scale(0.100000,-0.100000)"
fill="#000000" stroke="none">
<path d="M115 831 c-48 -22 -79 -54 -100 -103 -22 -55 -22 -551 0 -606 21 -49
52 -81 100 -103 36 -17 69 -19 308 -19 219 0 274 3 305 15 49 21 81 52 103
100 17 36 19 69 19 310 0 241 -2 274 -19 310 -22 48 -54 79 -103 100 -31 12
-86 15 -305 15 -239 0 -272 -2 -308 -19z"/>
</g>
</svg>
